<?xml version="1.0" encoding="utf-8"?>
<!-- Generator: Adobe Illustrator 16.0.0, SVG Export Plug-In . SVG Version: 6.00 Build 0)  -->
<!DOCTYPE svg PUBLIC "-//W3C//DTD SVG 1.1//EN" "http://www.w3.org/Graphics/SVG/1.1/DTD/svg11.dtd">
<svg version="1.1" id="Layer_1" xmlns="http://www.w3.org/2000/svg" xmlns:xlink="http://www.w3.org/1999/xlink" x="0px" y="0px"
	 width="693.402px" height="854.002px" viewBox="-173.351 -213.501 693.402 854.002"
	 enable-background="new -173.351 -213.501 693.402 854.002" xml:space="preserve">
<path fill="#F78F8F" d="M443.852-88.897c30.93,0,56,25.07,56,56s-25.07,56-56,56H-96.952c-30.922,0-56-25.07-56-56s25.078-56,56-56
	H443.852z"/>
<path fill="#F78F8F" d="M442.648,23.907v509.594c0,50.18-35.82,86-80,86H-15.749c-44.18,0-80-35.82-80-86V23.103h538.397V23.907z"/>
<g>
	<path fill="#C74343" d="M291.453,95.907c-11.047,0-20,8.953-20,20v378c0,11.039,8.953,20,20,20c11.039,0,20-8.961,20-20v-378
		C311.453,104.86,302.492,95.907,291.453,95.907z"/>
	<path fill="#C74343" d="M55.454,95.907c-11.047,0-20,8.953-20,20v378c0,11.039,8.953,20,20,20c11.039,0,20-8.961,20-20v-378
		C75.454,104.86,66.493,95.907,55.454,95.907z"/>
	<path fill="#C74343" d="M-116.546,40.743v492.758c0,29.125,10.672,56.469,29.336,76.102c18.563,19.68,44.406,30.852,71.461,30.898
		h378.397c27.055-0.047,52.898-11.219,71.461-30.898c18.664-19.633,29.344-46.977,29.344-76.102V40.767
		c13.008-3.633,24.891-10.492,34.555-19.938c21.625-21.93,28-54.695,16.18-83.141s-39.531-47.039-70.336-47.188H341.453v-25
		c0.117-21.023-8.195-41.211-23.086-56.063c-14.883-14.844-35.094-23.109-56.117-22.938H84.649
		c-21.023-0.172-41.234,8.094-56.117,22.938C13.642-175.71,5.329-155.522,5.454-134.499v25H-96.952
		c-42.031,0.438-75.992,34.422-76.398,76.453C-173.147,1.524-149.913,31.712-116.546,40.743z M362.648,600.501H-15.749
		c-34.203,0-60.797-29.375-60.797-67v-491h499.999v491C423.453,571.126,396.852,600.501,362.648,600.501z M45.454-134.499
		c-0.133-10.414,3.961-20.438,11.344-27.789c7.391-7.352,17.438-11.391,27.852-11.211H262.25
		c10.414-0.18,20.461,3.859,27.852,11.211c7.383,7.344,11.477,17.375,11.352,27.789v25H45.454V-134.499z M-122.421-58.64
		c6.711-6.859,15.875-10.766,25.469-10.859h540.804c19.93,0.164,36,16.375,36,36.305c-0.008,9.516-3.813,18.633-10.57,25.336
		c-6.766,6.703-15.914,10.43-25.43,10.359H-96.952c-19.844,0.047-35.961-16.008-36-35.844
		C-132.968-42.851-129.179-51.96-122.421-58.64z"/>
	<path fill="#C74343" d="M173.454,95.907c-11.047,0-20,8.953-20,20v378c0,11.039,8.953,20,20,20c11.039,0,20-8.961,20-20v-378
		C193.454,104.86,184.493,95.907,173.454,95.907z"/>
</g>
</svg>
